<svg width="232" height="30" viewBox="0 0 232 30" fill="none" xmlns="http://www.w3.org/2000/svg">
<path d="M0.934063 29V0.799998H12.2141C15.2007 0.799998 17.5074 1.44 19.1341 2.72C20.7607 4 21.5741 5.81333 21.5741 8.16C21.5741 9.92 21.0407 11.3867 19.9741 12.56C18.9341 13.7333 17.4807 14.5067 15.6141 14.88V14.32C17.6941 14.56 19.3207 15.28 20.4941 16.48C21.6941 17.6533 22.2941 19.24 22.2941 21.24C22.2941 23.7467 21.4541 25.6667 19.7741 27C18.1207 28.3333 15.7741 29 12.7341 29H0.934063ZM4.17406 26.32H12.4141C14.4407 26.32 16.0407 25.9333 17.2141 25.16C18.4141 24.36 19.0141 23.04 19.0141 21.2C19.0141 19.3333 18.4141 18.0133 17.2141 17.24C16.0407 16.44 14.4407 16.04 12.4141 16.04H4.17406V26.32ZM4.17406 13.4H11.7341C13.9207 13.4 15.5607 12.9733 16.6541 12.12C17.7474 11.2667 18.2941 10.04 18.2941 8.44C18.2941 6.78667 17.7474 5.54667 16.6541 4.72C15.5607 3.86666 13.9207 3.44 11.7341 3.44H4.17406V13.4ZM39.2416 29.36C35.4282 29.36 32.5882 28.3867 30.7216 26.44C28.8816 24.4933 27.9616 21.6267 27.9616 17.84V0.799998H31.2416V17.68C31.2416 20.5867 31.8816 22.7733 33.1616 24.24C34.4416 25.7067 36.4682 26.44 39.2416 26.44C41.8549 26.44 43.8416 25.7067 45.2016 24.24C46.5616 22.7733 47.2416 20.5867 47.2416 17.68V0.799998H50.5216V17.84C50.5216 21.6267 49.5616 24.4933 47.6416 26.44C45.7482 28.3867 42.9482 29.36 39.2416 29.36ZM66.5403 29.36C64.2736 29.36 62.247 29.0667 60.4603 28.48C58.6736 27.8933 57.1136 27.0533 55.7803 25.96L56.9803 23.32C57.9136 24.0133 58.847 24.6 59.7803 25.08C60.7403 25.5333 61.767 25.88 62.8603 26.12C63.9536 26.3333 65.1803 26.44 66.5403 26.44C68.9136 26.44 70.6736 26 71.8203 25.12C72.967 24.24 73.5403 23.0667 73.5403 21.6C73.5403 20.3467 73.1403 19.3867 72.3403 18.72C71.5403 18.0533 70.1403 17.52 68.1403 17.12L63.9403 16.28C61.3536 15.7467 59.4203 14.88 58.1403 13.68C56.887 12.48 56.2603 10.8533 56.2603 8.8C56.2603 7.12 56.687 5.65333 57.5403 4.4C58.4203 3.14666 59.647 2.17333 61.2203 1.48C62.7936 0.786665 64.6203 0.439998 66.7003 0.439998C68.7003 0.439998 70.527 0.746665 72.1803 1.36C73.8336 1.94667 75.247 2.81333 76.4203 3.96L75.2603 6.52C74.007 5.4 72.687 4.6 71.3003 4.12C69.9403 3.61333 68.3936 3.36 66.6603 3.36C64.4736 3.36 62.7403 3.84 61.4603 4.8C60.207 5.73333 59.5803 7.01333 59.5803 8.64C59.5803 9.94667 59.9803 10.9733 60.7803 11.72C61.5803 12.44 62.9003 12.9867 64.7403 13.36L68.9803 14.2C71.7003 14.76 73.7003 15.6 74.9803 16.72C76.2603 17.84 76.9003 19.4133 76.9003 21.44C76.9003 22.9867 76.4736 24.36 75.6203 25.56C74.7936 26.76 73.607 27.6933 72.0603 28.36C70.5136 29.0267 68.6736 29.36 66.5403 29.36ZM94.5422 29.36C91.7155 29.36 89.3155 28.7733 87.3422 27.6C85.3689 26.4267 83.8489 24.76 82.7822 22.6C81.7422 20.44 81.2222 17.8667 81.2222 14.88C81.2222 11.8933 81.7422 9.33333 82.7822 7.2C83.8489 5.04 85.3689 3.37333 87.3422 2.2C89.3155 1.02667 91.7155 0.439998 94.5422 0.439998C96.5422 0.439998 98.3289 0.746665 99.9022 1.36C101.476 1.97333 102.849 2.86667 104.022 4.04L102.782 6.68C101.502 5.56 100.236 4.74667 98.9822 4.24C97.7289 3.70666 96.2622 3.44 94.5822 3.44C91.3555 3.44 88.9022 4.44 87.2222 6.44C85.5422 8.44 84.7022 11.2533 84.7022 14.88C84.7022 18.5067 85.5422 21.3333 87.2222 23.36C88.9022 25.36 91.3555 26.36 94.5822 26.36C96.2622 26.36 97.7289 26.1067 98.9822 25.6C100.236 25.0667 101.502 24.2267 102.782 23.08L104.022 25.76C102.849 26.9067 101.476 27.8 99.9022 28.44C98.3289 29.0533 96.5422 29.36 94.5422 29.36Z" fill="white"/>
<path d="M106.806 29L119.246 0.799998H122.126L134.766 29H131.326L127.806 20.96L129.286 21.8H112.046L113.646 20.96L110.206 29H106.806ZM120.646 4.6L114.166 19.8L113.206 19.08H128.086L127.366 19.8L120.726 4.6H120.646ZM139.02 29V0.799998H141.62L159.7 24.8H158.78V0.799998H161.86V29H159.3L141.22 5H142.1V29H139.02ZM168.903 29V0.799998H172.223V29H168.903ZM179.294 29V0.799998H182.174L193.494 26.36H192.334L203.654 0.799998H206.534V29H203.494V5.08H204.694L194.014 29H191.814L181.094 5.08H182.294V29H179.294ZM213.59 29V0.799998H231.59V3.52H216.83V13.32H230.71V16.08H216.83V26.24H231.59V29H213.59Z" fill="#FFB800"/>
</svg>